<svg style="fill:#D10D24;" xmlns="http://www.w3.org/2000/svg" viewBox="0 0 46.3 64.86"><g id="Layer_2" data-name="Layer 2"><g id="Layer_1-2" data-name="Layer 1"><path d="M23.15,31.45a8.3,8.3,0,1,1,8.3-8.3A8.3,8.3,0,0,1,23.15,31.45Zm0-13.59a5.3,5.3,0,1,0,5.3,5.29A5.29,5.29,0,0,0,23.15,17.86Z"/><path d="M23.15,64.86h0a1.49,1.49,0,0,1-1.26-.69L3.94,36.07c-.2-.29-.41-.62-.61-1a23.15,23.15,0,1,1,39.66,0l0,0v0c-.19.32-.4.65-.62,1L24.41,64.17A1.49,1.49,0,0,1,23.15,64.86ZM23.15,3A20.16,20.16,0,0,0,5.88,33.54c.19.31.38.6.57.89l16.7,26.14L39.83,34.46c.22-.32.4-.61.58-.9l1.29.76-1.28-.78A20.16,20.16,0,0,0,23.15,3Z"/></g></g></svg>